<svg width="9" height="13" viewBox="0 0 9 13" fill="none" xmlns="http://www.w3.org/2000/svg">
<path d="M7.29901 13.0007C7.09818 13.0008 6.89932 12.9655 6.71394 12.8968C6.52856 12.8282 6.36034 12.7275 6.21901 12.6007L0.428649 7.40066C0.292896 7.28192 0.185084 7.14035 0.111492 6.98421C0.0378999 6.82806 0 6.66046 0 6.49116C0 6.32187 0.0378999 6.15426 0.111492 5.99812C0.185084 5.84197 0.292896 5.7004 0.428649 5.58166L6.42939 0.382662C6.61879 0.220037 6.85212 0.103511 7.10689 0.0443111C7.36167 -0.014889 7.6293 -0.0147682 7.88401 0.0446619C8.13712 0.101822 8.36884 0.217218 8.55586 0.379244C8.74288 0.54127 8.8786 0.744213 8.94938 0.967662C9.01741 1.1895 9.01706 1.42352 8.94838 1.6452C8.8797 1.86688 8.74521 2.06806 8.55901 2.22766L3.60902 6.50066L8.37901 10.7887C8.51699 10.9076 8.6267 11.05 8.70162 11.2073C8.77654 11.3647 8.81514 11.5338 8.81514 11.7047C8.81514 11.8755 8.77654 12.0446 8.70162 12.202C8.6267 12.3593 8.51699 12.5017 8.37901 12.6207C8.08919 12.8682 7.70091 13.0038 7.29901 12.9977V13.0007Z" fill="white"/>
</svg>
