<svg width="27" height="25" viewBox="0 0 27 25" fill="none" xmlns="http://www.w3.org/2000/svg">
<g id="Diet" clip-path="url(#clip0_4031_103)">
<g id="Diet_2">
<path id="Path 857" d="M17.024 11.5997C17.7788 11.8477 18.59 11.8847 19.3654 11.7067C20.1408 11.5286 20.8493 11.1426 21.4104 10.5924L25.8667 6.25738C25.9746 6.14439 26.0333 5.99508 26.0304 5.84086C26.0275 5.68663 25.9632 5.53951 25.8511 5.43044C25.739 5.32137 25.5878 5.25885 25.4292 5.25603C25.2707 5.2532 25.1172 5.3103 25.0011 5.41531L21.1042 9.20618L19.3719 7.521L23.2688 3.73012C23.3767 3.61713 23.4354 3.46782 23.4325 3.3136C23.4296 3.15938 23.3653 3.01226 23.2532 2.90319C23.1411 2.79412 22.9898 2.7316 22.8313 2.72877C22.6728 2.72595 22.5193 2.78305 22.4031 2.88805L18.5063 6.67893L16.774 4.99376L20.6709 1.20287C20.7788 1.08988 20.8375 0.940568 20.8346 0.786344C20.8317 0.632121 20.7674 0.485001 20.6553 0.37593C20.5432 0.266859 20.3919 0.20434 20.2334 0.201516C20.0749 0.198692 19.9214 0.255788 19.8052 0.360793L15.349 4.69583C14.784 5.24205 14.3875 5.93129 14.2045 6.68547C14.0215 7.43965 14.0593 8.22862 14.3136 8.96298L14.3386 9.0329L13.5198 9.78074L11.875 8.281L11.899 8.21108C12.1535 7.47658 12.1914 6.68741 12.0084 5.93303C11.8254 5.17865 11.4288 4.48924 10.8636 3.94293L9.00523 2.13515C8.20129 1.35308 7.11093 0.913707 5.97399 0.913707C4.83705 0.913707 3.74668 1.35308 2.94274 2.13515C2.1388 2.91722 1.68715 3.97792 1.68715 5.08393C1.68715 6.18995 2.1388 7.25067 2.94274 8.03274L4.80107 9.84052C5.36245 10.3907 6.07115 10.7767 6.8467 10.9547C7.62225 11.1328 8.43358 11.0957 9.18857 10.8478L9.26045 10.8245L10.7188 12.3354L1.66877 20.6052C1.4286 20.8253 1.23776 21.0913 1.10822 21.3865C0.978678 21.6818 0.913238 21.9999 0.915976 22.3209C0.918714 22.6418 0.989586 22.9588 1.12415 23.2519C1.25871 23.545 1.45405 23.8079 1.69794 24.0242C2.12888 24.4029 2.6901 24.6108 3.27087 24.6068C3.61793 24.6058 3.9611 24.5357 4.27927 24.4008C4.59743 24.266 4.88385 24.0691 5.12087 23.8225L13.4667 15.1798L21.1573 23.1436C21.3813 23.3752 21.6517 23.5597 21.9517 23.6859C22.2518 23.8121 22.5752 23.8772 22.9021 23.8772H22.9209C23.251 23.8741 23.577 23.8048 23.8785 23.6737C24.1799 23.5426 24.4503 23.3524 24.6729 23.1152C25.0917 22.6435 25.3043 22.0312 25.2654 21.409C25.2265 20.7869 24.9391 20.2042 24.4646 19.7854L16.2584 12.2867L16.9469 11.5774L17.024 11.5997ZM4.23231 23.0088C4.02011 23.2403 3.72456 23.3836 3.40678 23.4091C3.089 23.4346 2.77331 23.3402 2.52503 23.1456C2.40569 23.0401 2.31007 22.9118 2.24419 22.7686C2.17831 22.6254 2.14358 22.4706 2.14221 22.3137C2.14084 22.1569 2.17286 22.0014 2.23623 21.8572C2.2996 21.713 2.39295 21.5831 2.51044 21.4756L11.5604 13.2048L12.6302 14.3124L4.23231 23.0088ZM23.7688 22.3147C23.6608 22.4313 23.5289 22.5247 23.3816 22.5889C23.2344 22.6531 23.0749 22.6867 22.9136 22.6876C22.7527 22.6872 22.5936 22.6552 22.4457 22.5936C22.2979 22.532 22.1644 22.4419 22.0531 22.3288L9.88544 9.73108C9.80526 9.64807 9.70231 9.58916 9.58877 9.56132C9.47523 9.53348 9.35587 9.53789 9.24483 9.57401L8.80107 9.71791C8.26179 9.89491 7.6823 9.92123 7.12842 9.79387C6.57454 9.66651 6.06848 9.39058 5.66774 8.99743L3.80941 7.18964C3.23519 6.63104 2.91259 5.87342 2.91259 5.08344C2.91259 4.29346 3.23519 3.53582 3.80941 2.97722C4.38363 2.41862 5.16243 2.10479 5.9745 2.10479C6.78657 2.10479 7.56539 2.41862 8.13961 2.97722L9.99794 4.785C10.4019 5.17518 10.6853 5.6677 10.8161 6.20666C10.9468 6.74563 10.9196 7.30944 10.7375 7.83413L10.5896 8.2658C10.5527 8.37377 10.5484 8.48977 10.5772 8.60005C10.606 8.71033 10.6667 8.81026 10.7521 8.88799L14.9771 12.7488L23.6229 20.6528C23.8607 20.8592 24.0078 21.1466 24.0338 21.4556C24.0598 21.7645 23.9627 22.0714 23.7625 22.3126L23.7688 22.3147ZM16.3271 10.482L15.3709 11.473L14.4125 10.5975L15.4604 9.63988C15.5457 9.56201 15.6062 9.46208 15.635 9.35185C15.6638 9.24162 15.6596 9.12569 15.623 9.0177L15.475 8.585C15.317 8.12849 15.2758 7.64137 15.3549 7.16586C15.434 6.69035 15.6312 6.24079 15.9292 5.8561L20.2167 10.027C19.8217 10.3175 19.3598 10.5096 18.8711 10.5868C18.3824 10.664 17.8816 10.6238 17.4125 10.4698L16.9688 10.3259C16.8577 10.2897 16.7384 10.2852 16.6248 10.313C16.5112 10.3409 16.4083 10.3999 16.3281 10.483L16.3271 10.482Z" fill="#3A4750"/>
</g>
</g>
<defs>
<clipPath id="clip0_4031_103">
<rect width="25.1281" height="24.4223" fill="white" transform="translate(0.916656 0.186768)"/>
</clipPath>
</defs>
</svg>
