<svg width="26" height="25" viewBox="0 0 26 25" fill="none" xmlns="http://www.w3.org/2000/svg">
<path id="Path 857" d="M16.9823 11.2483C17.7371 11.493 18.5483 11.5296 19.3237 11.3539C20.0991 11.1782 20.8076 10.7972 21.3688 10.2543L25.825 5.97628C25.933 5.86478 25.9917 5.71743 25.9888 5.56524C25.9859 5.41304 25.9216 5.26786 25.8095 5.16022C25.6973 5.05259 25.5461 4.99089 25.3876 4.9881C25.229 4.98532 25.0756 5.04166 24.9594 5.14529L21.0625 8.88628L19.3303 7.22327L23.2271 3.48228C23.3351 3.37077 23.3938 3.22343 23.3909 3.07123C23.388 2.91904 23.3237 2.77386 23.2115 2.66622C23.0994 2.55859 22.9482 2.49689 22.7897 2.4941C22.6311 2.49131 22.4776 2.54766 22.3615 2.65128L18.4646 6.39228L16.7323 4.72929L20.6292 0.988273C20.7371 0.876769 20.7958 0.729426 20.7929 0.577232C20.79 0.425038 20.7258 0.279853 20.6136 0.172218C20.5015 0.0645822 20.3503 0.00288584 20.1918 9.86829e-05C20.0332 -0.00268847 19.8797 0.053657 19.7636 0.157279L15.3073 4.43528C14.7423 4.97431 14.3458 5.65448 14.1628 6.39873C13.9798 7.14299 14.0176 7.92158 14.2719 8.64628L14.2969 8.71528L13.4782 9.45328L11.8334 7.97327L11.8573 7.90427C12.1118 7.17944 12.1497 6.40065 11.9667 5.6562C11.7837 4.91174 11.3871 4.2314 10.8219 3.69228L8.96357 1.90829C8.15964 1.13651 7.06928 0.702918 5.93234 0.702918C4.7954 0.702918 3.70502 1.13651 2.90108 1.90829C2.09715 2.68007 1.64549 3.72681 1.64549 4.81827C1.64549 5.90974 2.09715 6.9565 2.90108 7.72828L4.75941 9.51227C5.32079 10.0552 6.02949 10.4361 6.80504 10.6118C7.5806 10.7875 8.39193 10.751 9.14692 10.5063L9.21879 10.4833L10.6771 11.9743L1.62712 20.1353C1.38695 20.3525 1.19611 20.615 1.06656 20.9064C0.937022 21.1977 0.871581 21.5116 0.87432 21.8284C0.877058 22.1452 0.947929 22.458 1.08249 22.7472C1.21705 23.0365 1.41239 23.2959 1.65628 23.5093C2.08723 23.8831 2.64845 24.0882 3.22921 24.0843C3.57628 24.0833 3.91945 24.0141 4.23761 23.881C4.55577 23.7479 4.8422 23.5537 5.07921 23.3103L13.425 14.7813L21.1157 22.6403C21.3397 22.8688 21.61 23.051 21.9101 23.1755C22.2101 23.3 22.5336 23.3643 22.8605 23.3643H22.8792C23.2094 23.3612 23.5354 23.2928 23.8368 23.1634C24.1383 23.034 24.4087 22.8464 24.6313 22.6123C25.05 22.1468 25.2627 21.5425 25.2237 20.9286C25.1848 20.3146 24.8974 19.7396 24.423 19.3263L16.2167 11.9263L16.9052 11.2263L16.9823 11.2483ZM4.19066 22.5073C3.97846 22.7358 3.68291 22.8772 3.36513 22.9023C3.04734 22.9274 2.73166 22.8343 2.48337 22.6423C2.36403 22.5382 2.26841 22.4115 2.20253 22.2702C2.13665 22.129 2.10192 21.9761 2.10055 21.8213C2.09918 21.6666 2.1312 21.5132 2.19457 21.3708C2.25794 21.2285 2.3513 21.1003 2.46878 20.9943L11.5188 12.8323L12.5886 13.9253L4.19066 22.5073ZM23.7271 21.8223C23.6191 21.9374 23.4872 22.0296 23.34 22.0929C23.1927 22.1563 23.0333 22.1895 22.8719 22.1903C22.7111 22.1899 22.5519 22.1584 22.4041 22.0975C22.2562 22.0367 22.1227 21.9478 22.0115 21.8363L9.84378 9.40427C9.7636 9.32236 9.66065 9.26422 9.54711 9.23675C9.43357 9.20928 9.31421 9.21362 9.20317 9.24927L8.75941 9.39127C8.22013 9.56595 7.64064 9.59192 7.08676 9.46624C6.53288 9.34055 6.02682 9.06825 5.62608 8.68027L3.76775 6.89628C3.19353 6.34503 2.87093 5.59737 2.87093 4.81779C2.87093 4.0382 3.19353 3.29053 3.76775 2.73928C4.34197 2.18803 5.12077 1.87833 5.93285 1.87833C6.74492 1.87833 7.52374 2.18803 8.09796 2.73928L9.95629 4.52328C10.3602 4.90832 10.6437 5.39436 10.7744 5.92623C10.9051 6.4581 10.8779 7.0145 10.6959 7.53228L10.548 7.95827C10.511 8.06482 10.5067 8.17929 10.5355 8.28812C10.5643 8.39695 10.625 8.49557 10.7105 8.57227L14.9355 12.3823L23.5813 20.1823C23.8191 20.3859 23.9662 20.6696 23.9921 20.9745C24.0181 21.2794 23.921 21.5822 23.7209 21.8203L23.7271 21.8223ZM16.2855 10.1453L15.3292 11.1233L14.3709 10.2593L15.4188 9.31428C15.504 9.23743 15.5646 9.13881 15.5933 9.03004C15.6221 8.92126 15.618 8.80685 15.5813 8.70028L15.4334 8.27328C15.2753 7.82277 15.2341 7.34206 15.3132 6.87281C15.3924 6.40355 15.5895 5.95991 15.8875 5.58028L20.175 9.69628C19.7801 9.98294 19.3182 10.1726 18.8294 10.2488C18.3407 10.3249 17.84 10.2853 17.3709 10.1333L16.9271 9.99128C16.8161 9.9555 16.6967 9.95109 16.5831 9.97857C16.4696 10.006 16.3666 10.0643 16.2865 10.1463L16.2855 10.1453Z" fill="black"/>
</svg>
