<svg width="15" height="15" viewBox="0 0 15 15" fill="none" xmlns="http://www.w3.org/2000/svg">
<path d="M13.8663 9.39438C13.817 9.39451 13.7682 9.40438 13.7227 9.4234C13.6771 9.44243 13.6358 9.47025 13.6011 9.50528C13.5663 9.5403 13.5388 9.58183 13.5202 9.62749C13.5015 9.67315 13.492 9.72205 13.4923 9.77138V13.1164C13.4923 13.4144 13.3742 13.7003 13.1639 13.9115C12.9536 14.1227 12.6682 14.2421 12.3701 14.2434H1.87132C1.57272 14.2421 1.28684 14.1223 1.07645 13.9105C0.866054 13.6986 0.748335 13.4119 0.749133 13.1134V3.29938C0.748599 3.00091 0.866404 2.71439 1.07674 2.50259C1.28708 2.29078 1.5728 2.17097 1.87132 2.16938H5.19288C5.28939 2.16441 5.38031 2.12257 5.44687 2.05251C5.51342 1.98245 5.55053 1.88951 5.55053 1.79288C5.55053 1.69625 5.51342 1.60332 5.44687 1.53326C5.38031 1.46319 5.28939 1.42136 5.19288 1.41638H1.87132C1.37359 1.4185 0.897026 1.61795 0.5462 1.97097C0.195375 2.32398 -0.00105737 2.80173 6.70842e-06 3.29938V13.1164C-0.00132273 13.6142 0.194992 14.0922 0.545846 14.4454C0.896701 14.7987 1.37342 14.9983 1.87132 15.0004H12.3731C12.871 14.9983 13.3477 14.7987 13.6986 14.4454C14.0494 14.0922 14.2457 13.6142 14.2444 13.1164V9.77138C14.2447 9.72171 14.2351 9.67249 14.2161 9.62656C14.1972 9.58064 14.1694 9.53893 14.1342 9.50385C14.099 9.46878 14.0572 9.44104 14.0113 9.42225C13.9653 9.40346 13.916 9.39398 13.8663 9.39438Z" fill="#303841"/>
<path d="M14.0975 0.479432C13.7904 0.172456 13.374 0 12.9398 0C12.5056 0 12.0891 0.172456 11.7821 0.479432L5.292 6.96843C5.24773 7.01286 5.21569 7.06798 5.19899 7.12843L4.34184 10.2094C4.32463 10.2715 4.32421 10.3371 4.34062 10.3994C4.35703 10.4617 4.38968 10.5185 4.43525 10.564C4.48081 10.6096 4.53765 10.6422 4.59996 10.6587C4.66227 10.6751 4.72783 10.6746 4.78992 10.6574L7.87143 9.80443C7.9319 9.78773 7.98703 9.7557 8.03146 9.71143L14.5216 3.22243C14.8281 2.91518 15.0002 2.49891 15.0002 2.06493C15.0002 1.63095 14.8281 1.21469 14.5216 0.907432L14.0975 0.479432ZM6.08514 7.20443L11.397 1.89343L13.1103 3.60643L7.79842 8.91743L6.08514 7.20443ZM5.74308 7.89143L7.11131 9.25943L5.21799 9.78343L5.74308 7.89143ZM14.0105 2.70643L13.6244 3.09243L11.9111 1.37943L12.2972 0.993432C12.3816 0.908952 12.4819 0.841935 12.5922 0.796211C12.7026 0.750487 12.8208 0.726952 12.9403 0.726952C13.0597 0.726952 13.178 0.750487 13.2884 0.796211C13.3987 0.841935 13.499 0.908952 13.5834 0.993432L14.0105 1.42043C14.1805 1.59131 14.2759 1.8226 14.2757 2.06364C14.2755 2.30468 14.1798 2.53582 14.0095 2.70643H14.0105Z" fill="#303841"/>
</svg>
