<svg width="32" height="27" viewBox="0 0 32 27" fill="none" xmlns="http://www.w3.org/2000/svg">
<g id="Group 56253 1" clip-path="url(#clip0_4031_111)">
<g id="Group 56253">
<path id="Path 858" d="M18.1188 26.5828C18.0292 26.5828 17.9438 26.5827 17.8583 26.5706C16.1135 26.4206 13.6979 24.094 10.6813 19.6475C9.14375 17.4222 8.27771 14.8224 8.18126 12.1428C8.16024 11.5546 8.1902 10.9658 8.27085 10.3826C7.68126 9.79688 5.91668 7.84318 6.41668 5.778C6.82397 4.08878 9.14897 3.31358 11.0323 2.96094C11.5576 2.86514 12.1007 2.9682 12.5505 3.24905C13.0003 3.5299 13.3228 3.96731 13.4521 4.47182C13.6922 5.94305 13.5467 7.44944 13.0292 8.85145C13.004 9.8552 13.1722 10.8546 13.525 11.7982C15.7228 12.7862 17.6612 14.2471 19.1938 16.0704C19.8938 13.7519 22.0688 8.44004 27.2656 9.32974C28.252 9.43694 29.1858 9.81817 29.9553 10.4279C30.7249 11.0376 31.2977 11.85 31.6052 12.768C31.9514 13.8461 32.0228 14.99 31.8132 16.101C31.6036 17.2119 31.1193 18.2566 30.4021 19.1449C28.6052 20.9922 21.6521 26.5817 18.1208 26.5817L18.1188 26.5828ZM11.4167 3.83139C11.3443 3.83206 11.2722 3.83884 11.2011 3.85166C10.1396 4.05432 7.63438 4.65422 7.31771 5.98777C6.85834 7.89486 9.05418 9.87288 9.07397 9.89214C9.13186 9.9433 9.17564 10.0078 9.2013 10.0796C9.22696 10.1515 9.23368 10.2285 9.22085 10.3036C9.12404 10.9067 9.08602 11.5174 9.1073 12.1275C9.19929 14.6367 10.0123 17.0706 11.4542 19.153C14.1865 23.18 16.5584 25.5542 17.9406 25.6728C20.8646 25.9139 27.8427 20.4622 29.7208 18.5318C30.3147 17.7588 30.7139 16.8611 30.8863 15.9107C31.0588 14.9603 30.9996 13.9839 30.7136 13.0598C30.4507 12.3016 29.9703 11.6324 29.3291 11.1312C28.6878 10.6301 27.9126 10.3179 27.0948 10.2316C21.4177 9.25881 19.8479 17.2064 19.8313 17.2854C19.8144 17.3778 19.7683 17.4628 19.6995 17.5286C19.6307 17.5944 19.5425 17.6378 19.4472 17.6526C19.3519 17.6674 19.2542 17.653 19.1678 17.6113C19.0813 17.5697 19.0103 17.5029 18.9646 17.4202C17.2729 14.4177 13.0073 12.5744 12.9667 12.5562C12.8575 12.5079 12.7707 12.422 12.7229 12.315C12.2677 11.1929 12.0518 9.99241 12.0885 8.78659C12.0892 8.74361 12.0962 8.70095 12.1094 8.65992C12.5972 7.39176 12.7442 6.02349 12.5365 4.68462C12.4756 4.4412 12.3322 4.2248 12.1294 4.07037C11.9266 3.91594 11.6763 3.83246 11.4188 3.83341L11.4167 3.83139Z" fill="#3A4750"/>
<path id="Path 859" d="M5.33232 10.1496C5.23564 10.1497 5.14133 10.1205 5.06254 10.066C4.98374 10.0115 4.92438 9.93441 4.89274 9.84555L4.11565 7.68108C4.09556 7.62526 4.08697 7.56613 4.09039 7.50709C4.09382 7.44804 4.10919 7.39021 4.1356 7.33694C4.16201 7.28367 4.19896 7.23598 4.24433 7.19662C4.28971 7.15725 4.34261 7.12698 4.40002 7.10753L6.64481 6.34043C6.70318 6.31894 6.76537 6.30896 6.82774 6.31107C6.89011 6.31317 6.95143 6.32733 7.00813 6.35269C7.06483 6.37805 7.11579 6.41413 7.15803 6.45882C7.20027 6.50352 7.23296 6.55594 7.25419 6.61303C7.27477 6.6704 7.28326 6.7312 7.27918 6.79183C7.2751 6.85246 7.25853 6.91167 7.23045 6.96594C7.20236 7.02021 7.16333 7.06843 7.11569 7.10773C7.06805 7.14702 7.01278 7.17659 6.95315 7.19467L5.14377 7.8118L5.61565 9.12912L7.48231 8.48871C7.53997 8.46874 7.6011 8.46002 7.66222 8.46304C7.72334 8.46606 7.78326 8.48077 7.83854 8.50632C7.89382 8.53186 7.94338 8.56776 7.98441 8.61194C8.02543 8.65612 8.05711 8.70774 8.07763 8.76383C8.09815 8.81992 8.1071 8.87938 8.104 8.93884C8.10089 8.9983 8.08577 9.05659 8.05951 9.11037C8.03325 9.16414 7.99636 9.21236 7.95095 9.25226C7.90553 9.29217 7.85247 9.32299 7.79481 9.34295L5.48856 10.1344C5.43822 10.1472 5.38645 10.154 5.3344 10.1546L5.33232 10.1496Z" fill="#3A4750"/>
<path id="Path 860" d="M12.9698 7.56243C12.86 7.56262 12.7537 7.52496 12.6697 7.45615C12.5857 7.38734 12.5295 7.29182 12.5111 7.18653C12.4926 7.08124 12.513 6.97298 12.5688 6.88097C12.6245 6.78895 12.712 6.71913 12.8157 6.68387L15.5605 5.74653L15.0886 4.4292L13.1563 5.08585C13.0398 5.12522 12.9121 5.11797 12.8011 5.06571C12.6902 5.01345 12.6051 4.92045 12.5646 4.80717C12.5241 4.69389 12.5316 4.56962 12.5853 4.46168C12.639 4.35374 12.7346 4.27098 12.8511 4.2316L15.2219 3.42093C15.3384 3.38133 15.4662 3.3882 15.5775 3.44005C15.6887 3.49189 15.7744 3.58447 15.8157 3.69757L16.5927 5.8651C16.6128 5.92092 16.6214 5.98004 16.618 6.03909C16.6146 6.09814 16.5992 6.15595 16.5728 6.20922C16.5464 6.26249 16.5094 6.31018 16.4641 6.34954C16.4187 6.38891 16.3658 6.41918 16.3084 6.43864L13.124 7.52291C13.0759 7.54523 13.0231 7.55633 12.9698 7.55534V7.56243Z" fill="#3A4750"/>
<path id="Path 861" d="M17.4521 8.77641C17.2157 8.77673 16.9852 8.70522 16.7927 8.57187C16.6001 8.43852 16.4552 8.24999 16.3781 8.03263L14.2719 2.13807C14.1739 1.86065 14.1914 1.5569 14.3209 1.29193C14.3856 1.16097 14.4765 1.04387 14.5883 0.94748C14.7001 0.851089 14.8305 0.777345 14.9719 0.730552L16.4302 0.236039C16.5713 0.188167 16.7206 0.16781 16.8697 0.176131C17.0188 0.184451 17.1648 0.221292 17.2993 0.284536C17.4338 0.347781 17.5541 0.436195 17.6534 0.54472C17.7528 0.653244 17.8291 0.779749 17.8781 0.917004L19.9844 6.81157C20.0824 7.08899 20.0648 7.39273 19.9354 7.6577C19.8707 7.78866 19.7798 7.90576 19.668 8.00215C19.5562 8.09854 19.4258 8.17229 19.2844 8.21908L17.8261 8.71359C17.7062 8.75582 17.5796 8.77708 17.4521 8.77641ZM16.801 1.08218C16.7776 1.08244 16.7544 1.08654 16.7323 1.09433L15.274 1.58885C15.2484 1.59723 15.2248 1.61051 15.2046 1.62792C15.1843 1.64532 15.1679 1.66649 15.1563 1.69018C15.144 1.71389 15.1369 1.73982 15.1355 1.76634C15.134 1.79285 15.1383 1.81937 15.1479 1.8442L17.2542 7.73876C17.2728 7.78897 17.311 7.83002 17.3606 7.85298C17.4101 7.87594 17.4669 7.87895 17.5188 7.86137L18.9771 7.36687C19.0032 7.35861 19.0272 7.34527 19.0478 7.32767C19.0684 7.31007 19.0851 7.28858 19.0969 7.2645C19.1087 7.24042 19.1153 7.21426 19.1164 7.18761C19.1175 7.16096 19.113 7.13438 19.1032 7.10948L16.9969 1.21492C16.9822 1.17594 16.9555 1.1423 16.9204 1.11856C16.8854 1.09482 16.8437 1.08212 16.801 1.08218Z" fill="#3A4750"/>
<path id="Path 862" d="M3.9094 13.377C3.67304 13.3773 3.44249 13.3058 3.24995 13.1725C3.0574 13.0391 2.9125 12.8506 2.83545 12.6332L0.729196 6.73865C0.630674 6.46154 0.64901 6.15776 0.780202 5.89378C0.911393 5.62979 1.14475 5.42711 1.42919 5.33012L2.88754 4.83562C3.17183 4.74019 3.48341 4.75826 3.75403 4.8859C4.02464 5.01354 4.23222 5.24033 4.33127 5.51658L6.43752 11.4111C6.53605 11.6882 6.51771 11.992 6.38652 12.256C6.25533 12.52 6.02197 12.7227 5.73753 12.8197L4.2792 13.3142C4.1588 13.3544 4.03254 13.3756 3.90523 13.377H3.9094ZM3.25836 5.67567C3.2349 5.67593 3.21166 5.68003 3.18961 5.68782L1.73129 6.18233C1.70522 6.1906 1.68114 6.20393 1.66054 6.22153C1.63994 6.23913 1.62325 6.26063 1.61146 6.28471C1.59967 6.30879 1.59302 6.33494 1.59195 6.36159C1.59089 6.38824 1.59541 6.41482 1.60524 6.43972L3.71148 12.3343C3.71997 12.3596 3.7337 12.383 3.75179 12.4031C3.76988 12.4231 3.79197 12.4394 3.81672 12.4508C3.84147 12.4623 3.86836 12.4688 3.89576 12.4698C3.92316 12.4708 3.95048 12.4665 3.97608 12.4569L5.4344 11.9624C5.46047 11.9541 5.48453 11.9408 5.50513 11.9232C5.52573 11.9056 5.54244 11.8841 5.55423 11.86C5.56602 11.8359 5.57265 11.8098 5.57372 11.7831C5.57479 11.7565 5.57027 11.7299 5.56045 11.705L3.45419 5.81044C3.43936 5.77181 3.41277 5.73851 3.37796 5.71497C3.34316 5.69143 3.30179 5.67878 3.25941 5.67871L3.25836 5.67567Z" fill="#3A4750"/>
</g>
</g>
<defs>
<clipPath id="clip0_4031_111">
<rect width="31.2583" height="26.4095" fill="white" transform="translate(0.666687 0.17334)"/>
</clipPath>
</defs>
</svg>
