<svg width="30" height="27" viewBox="0 0 30 27" fill="none" xmlns="http://www.w3.org/2000/svg">
<g id="Group 56253 1" clip-path="url(#clip0_4031_168)">
<g id="Group 56253">
<path id="Path 858" d="M16.7541 26.307C16.6681 26.307 16.5861 26.307 16.5041 26.2949C14.8291 26.1455 12.5101 23.8279 9.61414 19.3987C8.13813 17.182 7.30674 14.5923 7.21415 11.923C7.19396 11.3372 7.22273 10.7507 7.30015 10.1697C6.73415 9.58626 5.04015 7.64014 5.52015 5.58298C5.91115 3.90031 8.14315 3.12812 9.95115 2.77684C10.4555 2.68141 10.9768 2.78408 11.4087 3.06383C11.8405 3.34359 12.1501 3.77931 12.2741 4.28186C12.5046 5.74739 12.365 7.24794 11.8681 8.6445C11.844 9.64436 12.0055 10.6399 12.3441 11.5798C14.454 12.564 16.3149 14.0192 17.7861 15.8355C18.4581 13.526 20.5461 8.23469 25.5351 9.12094C26.4821 9.22772 27.3785 9.60748 28.1172 10.2148C28.856 10.8222 29.4059 11.6314 29.7011 12.5458C30.0335 13.6198 30.102 14.7592 29.9008 15.8659C29.6996 16.9726 29.2347 18.0132 28.5462 18.898C26.8211 20.7381 20.1461 26.306 16.7561 26.306L16.7541 26.307ZM10.3202 3.64391C10.2507 3.64458 10.1814 3.65134 10.1132 3.66411C9.09415 3.86599 6.68914 4.46356 6.38514 5.79193C5.94414 7.69162 8.05215 9.66197 8.07115 9.68115C8.12672 9.73212 8.16875 9.79633 8.19338 9.86792C8.21802 9.93952 8.22447 10.0162 8.21215 10.091C8.11922 10.6918 8.08272 11.3001 8.10314 11.9079C8.19145 14.4073 8.97197 16.8317 10.3561 18.9061C12.9791 22.9175 15.2562 25.2825 16.5832 25.4006C19.3902 25.6408 26.0891 20.2102 27.8921 18.2873C28.4623 17.5173 28.8455 16.623 29.011 15.6764C29.1765 14.7297 29.1197 13.757 28.8451 12.8366C28.5928 12.0813 28.1317 11.4146 27.5161 10.9154C26.9005 10.4162 26.1562 10.1053 25.3711 10.0193C19.9211 9.05028 18.4141 16.967 18.3981 17.0458C18.3819 17.1378 18.3377 17.2225 18.2716 17.288C18.2056 17.3536 18.1209 17.3967 18.0294 17.4115C17.938 17.4262 17.8442 17.4119 17.7612 17.3704C17.6782 17.3289 17.61 17.2624 17.5661 17.18C15.9421 14.1891 11.8471 12.353 11.8081 12.3349C11.7034 12.2868 11.62 12.2012 11.5742 12.0946C11.1371 10.9769 10.9299 9.78104 10.9651 8.57989C10.9658 8.53708 10.9725 8.49459 10.9851 8.45372C11.4534 7.19048 11.5946 5.82751 11.3952 4.49384C11.3367 4.25136 11.1991 4.0358 11.0044 3.88197C10.8097 3.72814 10.5694 3.64499 10.3222 3.64593L10.3202 3.64391Z" fill="black"/>
<path id="Path 859" d="M4.47908 9.93752C4.38627 9.93764 4.29574 9.90853 4.22009 9.85425C4.14445 9.79997 4.08747 9.72321 4.05708 9.63469L3.31108 7.47862C3.2918 7.42302 3.28355 7.36412 3.28684 7.3053C3.29012 7.24648 3.30488 7.18888 3.33023 7.13581C3.35559 7.08275 3.39106 7.03525 3.43462 6.99604C3.47818 6.95683 3.52896 6.92667 3.58408 6.90729L5.73908 6.14317C5.79511 6.12177 5.85481 6.11183 5.91469 6.11392C5.97457 6.11602 6.03343 6.13012 6.08786 6.15538C6.1423 6.18065 6.19122 6.21659 6.23177 6.26111C6.27232 6.30563 6.3037 6.35784 6.32408 6.41471C6.34384 6.47186 6.35199 6.53243 6.34807 6.59282C6.34415 6.65322 6.32825 6.71219 6.30129 6.76625C6.27432 6.82031 6.23685 6.86835 6.19112 6.90749C6.14539 6.94664 6.09232 6.97608 6.03508 6.9941L4.29808 7.60883L4.75109 8.92104L6.54308 8.28311C6.59843 8.26323 6.65711 8.25453 6.71579 8.25755C6.77447 8.26056 6.83199 8.27521 6.88506 8.30066C6.93813 8.32611 6.98571 8.36186 7.02509 8.40587C7.06447 8.44988 7.09488 8.50129 7.11458 8.55717C7.13428 8.61304 7.14288 8.67228 7.13989 8.7315C7.13691 8.79073 7.1224 8.84879 7.09718 8.90236C7.07197 8.95593 7.03657 9.00396 6.99297 9.04371C6.94937 9.08346 6.89843 9.11416 6.84308 9.13404L4.62908 9.92238C4.58075 9.93521 4.53105 9.94199 4.48108 9.94257L4.47908 9.93752Z" fill="black"/>
<path id="Path 860" d="M11.811 7.3606C11.7056 7.36079 11.6036 7.32327 11.5229 7.25473C11.4423 7.18618 11.3884 7.09104 11.3706 6.98616C11.3529 6.88127 11.3725 6.77344 11.426 6.68178C11.4796 6.59012 11.5635 6.52057 11.663 6.48544L14.298 5.55174L13.845 4.23952L11.99 4.89362C11.8782 4.93284 11.7556 4.92562 11.6491 4.87357C11.5426 4.82151 11.4609 4.72887 11.422 4.61603C11.3832 4.50319 11.3903 4.3794 11.4419 4.27188C11.4935 4.16436 11.5852 4.08191 11.697 4.04269L13.973 3.23517C14.0848 3.19572 14.2076 3.20256 14.3144 3.2542C14.4212 3.30584 14.5034 3.39807 14.543 3.51073L15.289 5.66985C15.3083 5.72545 15.3166 5.78435 15.3133 5.84317C15.31 5.90199 15.2952 5.95958 15.2699 6.01264C15.2445 6.0657 15.2091 6.1132 15.1655 6.15242C15.122 6.19163 15.0712 6.22178 15.016 6.24116L11.959 7.32123C11.9129 7.34347 11.8622 7.35453 11.811 7.35353V7.3606Z" fill="black"/>
<path id="Path 861" d="M16.1141 8.56983C15.8872 8.57014 15.6659 8.49891 15.481 8.36608C15.2962 8.23325 15.1571 8.04545 15.0831 7.82893L13.0611 1.95724C12.967 1.68089 12.9839 1.37832 13.1081 1.11438C13.1702 0.983922 13.2575 0.86728 13.3648 0.771263C13.4721 0.675246 13.5973 0.601788 13.7331 0.555177L15.1331 0.0625819C15.2685 0.0148957 15.4119 -0.00538267 15.555 0.00290584C15.6982 0.0111943 15.8383 0.0478918 15.9674 0.110891C16.0965 0.17389 16.212 0.261962 16.3074 0.370065C16.4027 0.478168 16.476 0.604183 16.5231 0.740905L18.5451 6.6126C18.6392 6.88895 18.6223 7.19151 18.4981 7.45545C18.436 7.58591 18.3487 7.70255 18.2414 7.79857C18.1341 7.89459 18.0089 7.96805 17.8731 8.01466L16.4731 8.50725C16.358 8.54931 16.2365 8.57049 16.1141 8.56983ZM15.4891 0.90544C15.4666 0.905698 15.4443 0.909786 15.4231 0.917546L14.0231 1.41014C13.9985 1.41849 13.9759 1.43173 13.9565 1.44906C13.9371 1.4664 13.9213 1.48749 13.9101 1.51108C13.8983 1.5347 13.8915 1.56053 13.8901 1.58694C13.8887 1.61336 13.8928 1.63977 13.9021 1.66451L15.9241 7.5362C15.942 7.58622 15.9787 7.62711 16.0262 7.64997C16.0738 7.67284 16.1283 7.67585 16.1781 7.65834L17.5781 7.16575C17.6031 7.15752 17.6262 7.14424 17.646 7.12671C17.6658 7.10918 17.6818 7.08776 17.6931 7.06378C17.7045 7.0398 17.7108 7.01374 17.7118 6.98719C17.7129 6.96065 17.7086 6.93417 17.6991 6.90936L15.6771 1.03767C15.663 0.998839 15.6373 0.965332 15.6037 0.941681C15.5701 0.918031 15.5301 0.905382 15.4891 0.90544Z" fill="black"/>
<path id="Path 862" d="M3.11309 13.1525C2.88619 13.1528 2.66486 13.0816 2.48002 12.9487C2.29518 12.8159 2.15607 12.6281 2.0821 12.4116L0.0600966 6.53987C-0.034485 6.26384 -0.016882 5.96123 0.109062 5.69828C0.235006 5.43532 0.459029 5.23342 0.732094 5.1368L2.1321 4.64422C2.40503 4.54916 2.70414 4.56717 2.96394 4.69431C3.22373 4.82145 3.423 5.04737 3.51809 5.32254L5.54009 11.1942C5.63467 11.4703 5.61707 11.7729 5.49113 12.0358C5.36518 12.2988 5.14116 12.5007 4.8681 12.5973L3.4681 13.0899C3.35252 13.13 3.2313 13.1511 3.10909 13.1525H3.11309ZM2.48809 5.48101C2.46557 5.48127 2.44326 5.48536 2.4221 5.49312L1.0221 5.98571C0.997078 5.99394 0.973962 6.00723 0.954185 6.02476C0.934409 6.04229 0.918385 6.06371 0.907066 6.08769C0.895747 6.11168 0.889369 6.13772 0.888344 6.16427C0.887318 6.19082 0.891665 6.2173 0.9011 6.2421L2.92309 12.1138C2.93124 12.1391 2.94442 12.1624 2.96178 12.1823C2.97915 12.2023 3.00036 12.2185 3.02412 12.2299C3.04788 12.2413 3.0737 12.2478 3.1 12.2488C3.1263 12.2498 3.15253 12.2455 3.1771 12.2359L4.5771 11.7433C4.60212 11.7351 4.62522 11.7218 4.645 11.7043C4.66477 11.6868 4.68081 11.6654 4.69213 11.6414C4.70345 11.6174 4.70981 11.5913 4.71084 11.5648C4.71186 11.5382 4.70753 11.5118 4.6981 11.487L2.67609 5.61526C2.66185 5.57678 2.63633 5.54361 2.60291 5.52016C2.5695 5.49672 2.52979 5.48412 2.4891 5.48405L2.48809 5.48101Z" fill="black"/>
</g>
</g>
<defs>
<clipPath id="clip0_4031_168">
<rect width="30.008" height="26.307" fill="white"/>
</clipPath>
</defs>
</svg>
