<svg width="24" height="24" viewBox="0 0 24 24" fill="none" xmlns="http://www.w3.org/2000/svg">
<path d="M0 12C0 9.62663 0.703788 7.30655 2.02236 5.33316C3.34094 3.35977 5.21509 1.8217 7.4078 0.913451C9.60051 0.00519943 12.0133 -0.232441 14.3411 0.230582C16.6689 0.693605 18.8071 1.83649 20.4853 3.51472C22.1635 5.19295 23.3064 7.33115 23.7694 9.65892C24.2324 11.9867 23.9948 14.3995 23.0866 16.5922C22.1783 18.7849 20.6402 20.6591 18.6668 21.9776C16.6935 23.2962 14.3734 24 12 24C8.8174 24 5.76515 22.7357 3.51472 20.4853C1.26428 18.2348 0 15.1826 0 12H0Z" fill="#F5F5F5"/>
<path d="M11.934 7.68102C12.9275 7.6655 13.8883 8.03537 14.615 8.71302L16.571 6.80002C15.3157 5.62377 13.6541 4.97875 11.934 5.00002C10.6487 4.99969 9.38872 5.3569 8.29485 6.03169C7.20098 6.70648 6.31639 7.67226 5.73999 8.82102L7.98199 10.562C8.25623 9.72855 8.78515 9.00217 9.49418 8.48529C10.2032 7.96841 11.0566 7.6871 11.934 7.68102Z" fill="#EA4335"/>
<path d="M18.5891 12.087C18.5975 11.6105 18.5485 11.1347 18.4431 10.67H11.9331V13.243H15.7541C15.6812 13.6943 15.5177 14.1262 15.2735 14.5127C15.0293 14.8992 14.7094 15.2323 14.3331 15.492L16.5241 17.187C17.2057 16.5285 17.7416 15.7344 18.0973 14.8559C18.453 13.9775 18.6205 13.0342 18.5891 12.087Z" fill="#4285F4"/>
<path d="M7.98909 13.305C7.83768 12.8637 7.75964 12.4005 7.75809 11.934C7.76078 11.4682 7.83602 11.0056 7.98109 10.563L5.74009 8.82098C5.25379 9.78646 5.00049 10.8525 5.00049 11.9335C5.00049 13.0145 5.25379 14.0805 5.74009 15.046L7.98909 13.305Z" fill="#FBBC05"/>
<path d="M11.9331 18.867C13.6218 18.9148 15.2646 18.3139 16.5241 17.188L14.3371 15.493C13.6286 15.968 12.7897 16.2103 11.9371 16.186C11.0597 16.1816 10.206 15.9009 9.49731 15.3838C8.78858 14.8666 8.26085 14.1392 7.98907 13.305L5.74707 15.046C6.32176 16.1944 7.20485 17.1601 8.29742 17.835C9.38999 18.5099 10.6489 18.8672 11.9331 18.867Z" fill="#34A853"/>
</svg>
