<svg width="22" height="18" viewBox="0 0 22 18" fill="none" xmlns="http://www.w3.org/2000/svg">
<path id="ic_menu" d="M11.8036 17.1071C11.527 17.1071 11.2618 16.9973 11.0662 16.8017C10.8706 16.6061 10.7607 16.3408 10.7607 16.0642C10.7607 15.7876 10.8706 15.5224 11.0662 15.3268C11.2618 15.1312 11.527 15.0213 11.8036 15.0213H20.1467C20.4233 15.0213 20.6886 15.1312 20.8842 15.3268C21.0797 15.5224 21.1896 15.7876 21.1896 16.0642C21.1896 16.3408 21.0797 16.6061 20.8842 16.8017C20.6886 16.9973 20.4233 17.1071 20.1467 17.1071H11.8036ZM1.37472 9.8069C1.09813 9.8069 0.832868 9.69703 0.637288 9.50145C0.441708 9.30587 0.331833 9.0406 0.331833 8.76401C0.331833 8.48742 0.441708 8.22216 0.637288 8.02658C0.832868 7.831 1.09813 7.72112 1.37472 7.72112H20.1467C20.4233 7.72112 20.6886 7.831 20.8842 8.02658C21.0797 8.22216 21.1896 8.48742 21.1896 8.76401C21.1896 9.0406 21.0797 9.30587 20.8842 9.50145C20.6886 9.69703 20.4233 9.8069 20.1467 9.8069H1.37472ZM1.37472 2.50668C1.09813 2.50668 0.832868 2.3968 0.637288 2.20122C0.441708 2.00564 0.331833 1.74038 0.331833 1.46379C0.331833 1.1872 0.441708 0.921933 0.637288 0.726354C0.832868 0.530774 1.09813 0.420898 1.37472 0.420898L9.71784 0.420898C9.99443 0.420898 10.2597 0.530774 10.4553 0.726354C10.6509 0.921933 10.7607 1.1872 10.7607 1.46379C10.7607 1.74038 10.6509 2.00564 10.4553 2.20122C10.2597 2.3968 9.99443 2.50668 9.71784 2.50668H1.37472Z" fill="white"/>
</svg>
