<svg width="25" height="26" viewBox="0 0 25 26" fill="none" xmlns="http://www.w3.org/2000/svg">
<path id="icon_profile" opacity="0.51" d="M7.68542 13.3682C6.81074 12.6045 6.13678 11.6481 5.71996 10.579C5.30313 9.50992 5.15559 8.35926 5.28959 7.22334C5.44101 5.46062 6.27593 3.81992 7.62502 2.63396C9.03909 1.34792 10.9144 0.651406 12.8498 0.693449C14.7851 0.735492 16.6266 1.51277 17.9802 2.85894C18.6914 3.55161 19.2515 4.37689 19.6268 5.2853C20.002 6.19372 20.1848 7.16653 20.1641 8.14535C20.1433 9.12417 19.9195 10.0888 19.5061 10.9814C19.0927 11.8741 18.4983 12.6762 17.7583 13.3398C18.3833 13.7016 19.0427 14.0299 19.6448 14.4332C21.9595 15.9742 23.655 18.2465 24.4438 20.8649C24.8384 22.0162 24.9553 23.2405 24.7854 24.4429C24.7288 24.6098 24.6194 24.755 24.4729 24.8578C24.3265 24.9606 24.1504 25.0158 23.9698 25.0155C23.7944 25.0227 23.6222 24.9691 23.4837 24.8642C23.3452 24.7593 23.2494 24.61 23.2135 24.4429C23.1469 23.9768 23.1448 23.5015 23.0885 23.0334C22.8537 20.9985 21.9974 19.0787 20.6302 17.5219C19.4688 16.1627 17.9493 15.1364 16.2343 14.5528C16.0809 14.5057 15.9152 14.5129 15.7667 14.5731C14.7675 15.0379 13.6738 15.2785 12.5663 15.2771C11.4587 15.2757 10.3656 15.0323 9.3677 14.565C9.22938 14.5086 9.07481 14.5025 8.93225 14.5477C7.4128 15.0892 6.04986 15.9787 4.95867 17.1411C3.86748 18.3035 3.08024 19.7045 2.66356 21.2256C2.37509 22.1931 2.22401 23.1944 2.21457 24.2018C2.22313 24.304 2.21 24.4069 2.17604 24.5041C2.14207 24.6012 2.08798 24.6906 2.01709 24.7666C1.9462 24.8426 1.86004 24.9036 1.76392 24.9459C1.66781 24.9882 1.56378 25.0108 1.4583 25.0124C1.35202 25.0093 1.24752 24.985 1.15128 24.941C1.05505 24.897 0.969118 24.8342 0.898815 24.7566C0.828511 24.679 0.775374 24.5882 0.742603 24.4898C0.709831 24.3914 0.698165 24.2875 0.708334 24.1845C0.723582 21.0888 1.9303 18.1109 4.09064 15.8377C4.94498 14.9648 5.94302 14.2367 7.04372 13.6833C7.24789 13.585 7.45521 13.4858 7.68542 13.3682ZM6.83855 7.96308C6.8366 9.4913 7.4573 10.958 8.5647 12.0419C9.67211 13.1259 11.176 13.7387 12.7469 13.7462C14.3072 13.738 15.8015 13.1326 16.9066 12.061C18.0116 10.9894 18.6387 9.53767 18.6521 8.01983C18.6519 6.49173 18.0302 5.02576 16.9229 3.94191C15.8156 2.85806 14.3125 2.24436 12.7417 2.23472C11.1812 2.24531 9.68761 2.85231 8.5832 3.92478C7.4788 4.99725 6.85219 6.44915 6.83855 7.96713V7.96308Z" fill="#3A4750"/>
</svg>
