<svg width="27" height="26" viewBox="0 0 27 26" fill="none" xmlns="http://www.w3.org/2000/svg">
<path id="icon_profile" d="M8.22444 13.5075C7.31922 12.7539 6.62172 11.8103 6.19034 10.7555C5.75896 9.70065 5.60626 8.56534 5.74495 7.44456C5.90165 5.70536 6.76573 4.08654 8.16193 2.9164C9.62539 1.64752 11.5662 0.960292 13.5691 1.00177C15.572 1.04326 17.4778 1.81016 18.8788 3.13838C19.6148 3.82181 20.1945 4.63608 20.5828 5.53238C20.9712 6.42868 21.1603 7.38852 21.1389 8.35428C21.1175 9.32004 20.8858 10.2718 20.458 11.1525C20.0302 12.0332 19.4149 12.8247 18.6491 13.4795C19.296 13.8364 19.9784 14.1604 20.6015 14.5583C22.997 16.0787 24.7517 18.3207 25.5681 20.9041C25.9764 22.0402 26.0974 23.2481 25.9217 24.4345C25.8631 24.5991 25.7499 24.7423 25.5983 24.8438C25.4467 24.9452 25.2645 24.9997 25.0775 24.9994C24.8961 25.0065 24.7178 24.9536 24.5744 24.8501C24.4311 24.7467 24.332 24.5994 24.2949 24.4345C24.2259 23.9746 24.2237 23.5056 24.1655 23.0437C23.9225 21.036 23.0363 19.1418 21.6213 17.6057C20.4194 16.2647 18.8468 15.2521 17.0719 14.6762C16.9131 14.6298 16.7417 14.6369 16.5879 14.6963C15.5539 15.1549 14.422 15.3923 13.2757 15.3909C12.1295 15.3895 10.9982 15.1494 9.96548 14.6883C9.82233 14.6326 9.66236 14.6266 9.51482 14.6713C7.94231 15.2055 6.53176 16.0831 5.40246 17.23C4.27317 18.3769 3.45843 19.7593 3.02719 21.26C2.72866 22.2146 2.57229 23.2026 2.56252 24.1965C2.57139 24.2974 2.5578 24.399 2.52265 24.4948C2.4875 24.5907 2.43152 24.6788 2.35815 24.7538C2.28479 24.8288 2.19561 24.889 2.09614 24.9307C1.99667 24.9724 1.88901 24.9948 1.77985 24.9964C1.66985 24.9933 1.5617 24.9693 1.46211 24.9259C1.36251 24.8825 1.27358 24.8206 1.20082 24.744C1.12806 24.6674 1.07307 24.5778 1.03915 24.4807C1.00524 24.3836 0.993161 24.2811 1.00369 24.1795C1.01947 21.1251 2.26833 18.1869 4.50411 15.944C5.38829 15.0828 6.42119 14.3643 7.56033 13.8184C7.77163 13.7214 7.98619 13.6235 8.22444 13.5075ZM7.348 8.17444C7.34599 9.68227 7.98836 11.1294 9.13444 12.1989C10.2805 13.2684 11.8369 13.873 13.4627 13.8804C15.0775 13.8723 16.624 13.275 17.7676 12.2177C18.9113 11.1604 19.5603 9.72803 19.5741 8.23043C19.5739 6.72271 18.9305 5.2763 17.7845 4.20691C16.6385 3.13751 15.0829 2.532 13.4573 2.52249C11.8423 2.53293 10.2966 3.13184 9.15359 4.19C8.01061 5.24817 7.36211 6.68071 7.348 8.17844V8.17444Z" fill="black" stroke="#00ADB5" stroke-width="0.1"/>
</svg>
