<svg width="26" height="23" viewBox="0 0 26 23" fill="none" xmlns="http://www.w3.org/2000/svg">
<path id="icon_home" d="M22.7614 10.5998V11.0214C22.7614 14.5306 22.7489 18.0387 22.7739 21.5469C22.7676 21.8029 22.6653 22.0478 22.4863 22.2355C22.3073 22.4233 22.064 22.5409 21.8021 22.5663C21.6864 22.5734 21.5698 22.5724 21.4531 22.5724C15.6462 22.5724 9.83922 22.5724 4.03227 22.5724C3.82308 22.5784 3.61379 22.5648 3.40727 22.5319C2.79686 22.4143 2.69061 22.2785 2.69061 21.6817C2.69061 18.1215 2.69061 14.5613 2.69061 11.0011V10.5705C2.3229 10.8299 2.01873 11.0447 1.71456 11.2575C1.23123 11.5949 0.85623 11.5615 0.529146 11.1562C0.445227 11.066 0.381408 10.9599 0.341694 10.8445C0.30198 10.7292 0.287235 10.6071 0.298389 10.4859C0.309543 10.3647 0.346353 10.2471 0.406504 10.1405C0.466654 10.0338 0.548838 9.94045 0.647895 9.8662C1.70623 8.99676 2.76595 8.12901 3.82706 7.26294C6.56248 5.0255 9.2979 2.78773 12.0333 0.54961C12.1311 0.439358 12.252 0.350745 12.3879 0.289721C12.5238 0.228697 12.6716 0.196683 12.8213 0.195819C12.971 0.194955 13.1191 0.22526 13.2558 0.284711C13.3924 0.344162 13.5144 0.431387 13.6135 0.540503C17.4128 3.62509 21.2128 6.70866 25.0135 9.79122C25.1109 9.85151 25.1886 9.93762 25.2373 10.0394C25.286 10.1412 25.3038 10.2545 25.2885 10.3658C25.2842 10.4377 25.2842 10.5097 25.2885 10.5816C25.2812 10.84 25.3635 11.1197 25.0364 11.2788C24.8789 11.3749 24.6973 11.4273 24.5113 11.4303C24.3253 11.4334 24.142 11.3869 23.9812 11.296C23.6375 11.0934 23.2979 10.8846 22.9562 10.6799C22.8929 10.6498 22.8278 10.623 22.7614 10.5998ZM4.46978 20.8183H20.6656C20.6719 20.7078 20.6823 20.6156 20.6823 20.5275C20.6823 16.7106 20.6823 12.8937 20.6823 9.07682C20.6868 8.99143 20.669 8.90632 20.6305 8.82942C20.5921 8.75253 20.5343 8.68634 20.4625 8.63703C18.6215 7.15553 16.784 5.66932 14.95 4.17837C14.1958 3.57037 13.4399 2.96034 12.6823 2.34829C12.6041 2.40199 12.5417 2.43948 12.4844 2.48508L8.85415 5.38017C7.49998 6.46241 6.14582 7.55276 4.7729 8.61676C4.66897 8.68559 4.58541 8.77974 4.53057 8.8898C4.47574 8.99987 4.45154 9.122 4.4604 9.24401C4.47012 12.9596 4.4722 16.6751 4.46665 20.3907L4.46978 20.8183Z" fill="black"/>
</svg>
