<svg width="62" height="39" viewBox="0 0 62 39" fill="none" xmlns="http://www.w3.org/2000/svg">
<path d="M43.3367 35.723C44.7391 36.5318 46.2281 37.0621 47.4885 37.2016C48.749 37.3412 49.6818 37.079 50.0896 36.4705C52.224 37.6542 54.4577 38.4037 56.3212 38.5617C58.1848 38.7197 59.5331 38.2738 60.0831 37.3178L61.1491 35.4714C61.697 34.5171 61.4077 33.129 60.3415 31.5975C59.2754 30.0661 57.515 28.5098 55.4285 27.2542C55.7243 26.584 55.4594 25.6388 54.6896 24.618C53.9199 23.5971 52.7054 22.5803 51.3022 21.7818C49.8989 20.9833 48.4164 20.4655 47.1671 20.3374C45.9178 20.2094 44.9993 20.4812 44.6051 21.0954L43.2186 23.4969L21.6288 11.032L23.0153 8.63057C23.2207 8.31879 23.2831 7.92648 23.1989 7.47638C23.1148 7.02629 22.8857 6.52738 22.5249 6.00859C22.1642 5.48981 21.679 4.96147 21.0975 4.45425C20.516 3.94703 19.8498 3.47102 19.1375 3.05383C18.4253 2.63663 17.6811 2.28656 16.9482 2.02394C16.2154 1.76131 15.5084 1.59135 14.8682 1.52391C14.2281 1.45648 13.6676 1.4929 13.2193 1.63109C12.771 1.76928 12.4438 2.00648 12.2566 2.32892C10.1262 1.15018 7.89863 0.404133 6.03969 0.246753C4.18074 0.089374 2.83432 0.532854 2.28192 1.48447L1.21592 3.33082C0.669172 4.28537 0.959325 5.67319 2.02572 7.20411C3.09212 8.73502 4.85221 10.2905 6.93799 11.5454C6.6422 12.2157 6.90708 13.1608 7.67682 14.1817C8.44656 15.2025 9.66105 16.2193 11.0643 17.0178C12.4676 17.8163 13.9501 18.3342 15.1994 18.4622C16.4487 18.5903 17.3672 18.3185 17.7613 17.7042L19.1458 15.3062L40.728 27.7666L39.3415 30.1681C38.9697 30.8156 39.1816 31.7644 39.9306 32.8061C40.6797 33.8478 41.9046 34.8973 43.3362 35.7238L43.3367 35.723ZM59.8355 34.7131L58.7695 36.5594C58.3065 37.3535 57.1839 37.7254 55.6341 37.5981C54.0843 37.4708 52.2258 36.8542 50.4432 35.8757L55.0817 27.8415C56.8214 28.8966 58.2853 30.1986 59.1703 31.4778C60.0553 32.7571 60.2935 33.9154 59.8355 34.7131V34.7131ZM45.9014 21.8438C46.0315 21.5913 46.2696 21.4029 46.6017 21.2898C46.9338 21.1767 47.3532 21.1412 47.8354 21.1853C48.3175 21.2294 48.8527 21.3522 49.4095 21.5466C49.9662 21.741 50.5334 22.003 51.0778 22.3173C51.6221 22.6316 52.1326 22.9917 52.5793 23.3767C53.0261 23.7617 53.4 24.1638 53.6793 24.5593C53.9585 24.9548 54.1375 25.3358 54.2056 25.6799C54.2737 26.0241 54.2296 26.3244 54.076 26.5634L48.8319 35.6463C48.5301 36.1156 47.8242 36.3205 46.8652 36.217C45.9063 36.1136 44.7707 35.71 43.7018 35.0929C42.6328 34.4757 41.7156 33.6941 41.1465 32.9153C40.5775 32.1366 40.4019 31.4227 40.6574 30.9267L45.9014 21.8438ZM2.5237 4.08586L3.58969 2.23951C4.05148 1.44412 5.17376 1.0712 6.72407 1.198C8.27438 1.32481 10.1339 1.94162 11.9175 2.92066L7.27899 10.9548C5.54031 9.90027 4.077 8.59913 3.19186 7.32057C2.30672 6.042 2.0675 4.88388 2.5237 4.08586V4.08586ZM16.4578 16.9551C16.156 17.4244 15.45 17.6292 14.4911 17.5258C13.5321 17.4223 12.3966 17.0188 11.3276 16.4017C10.2587 15.7845 9.34143 15.0028 8.77238 14.2241C8.20333 13.4454 8.02775 12.7315 8.28326 12.2355L13.5273 3.15262C13.6574 2.90004 13.8955 2.71168 14.2276 2.59859C14.5597 2.48551 14.9791 2.44998 15.4612 2.49407C15.9434 2.53817 16.4785 2.66102 17.0353 2.8554C17.5921 3.04979 18.1593 3.3118 18.7036 3.62607C19.2479 3.94034 19.7584 4.30052 20.2052 4.68552C20.6519 5.07051 21.0259 5.47255 21.3051 5.86806C21.5844 6.26356 21.7634 6.64456 21.8315 6.98871C21.8996 7.33286 21.8555 7.63323 21.7018 7.8722L16.4578 16.9551ZM19.4931 14.718L21.2836 11.6168L42.8657 24.0772L41.0752 27.1784L19.4931 14.718Z" fill="#FFF8F8"/>
</svg>
