<svg width="24" height="24" viewBox="0 0 24 24" fill="none" xmlns="http://www.w3.org/2000/svg">
<g id="search">
<path id="Vector" d="M15.5 14H14.71L14.43 13.73C15.5266 12.4524 16.0856 10.7997 15.9895 9.11872C15.8934 7.43778 15.1499 5.85943 13.9149 4.71504C12.6799 3.57066 11.0496 2.94925 9.36625 2.98128C7.68287 3.01331 6.07738 3.6963 4.88684 4.88684C3.6963 6.07738 3.01331 7.68287 2.98128 9.36625C2.94925 11.0496 3.57066 12.6799 4.71504 13.9149C5.85943 15.1499 7.43778 15.8934 9.11872 15.9895C10.7997 16.0856 12.4524 15.5266 13.73 14.43L14 14.71V15.5L19 20.49L20.49 19L15.5 14ZM9.50004 14C8.61003 14 7.74 13.7361 6.99998 13.2417C6.25996 12.7472 5.68318 12.0444 5.34259 11.2221C5.00199 10.3999 4.91288 9.49505 5.08651 8.62214C5.26014 7.74922 5.68873 6.9474 6.31806 6.31806C6.9474 5.68873 7.74922 5.26014 8.62214 5.08651C9.49505 4.91288 10.3999 5.00199 11.2221 5.34259C12.0444 5.68318 12.7472 6.25996 13.2417 6.99998C13.7361 7.74 14 8.61003 14 9.50004C14.0008 10.0912 13.885 10.6767 13.6591 11.2231C13.4332 11.7694 13.1018 12.2658 12.6838 12.6838C12.2658 13.1018 11.7694 13.4332 11.2231 13.6591C10.6767 13.885 10.0912 14.0008 9.50004 14Z" fill="#303841"/>
</g>
</svg>
