<svg width="26" height="26" viewBox="0 0 26 26" fill="none" xmlns="http://www.w3.org/2000/svg">
<g id="search">
<path id="Vector" d="M16.2686 14.6005H15.4447L15.1527 14.3189C16.2963 12.9865 16.8792 11.2628 16.7791 9.5098C16.6789 7.75677 15.9034 6.11073 14.6155 4.91726C13.3276 3.7238 11.6273 3.07573 9.87175 3.10914C8.11618 3.14255 6.44182 3.85482 5.20022 5.09643C3.95862 6.33803 3.24634 8.01238 3.21294 9.76795C3.17953 11.5235 3.82759 13.2238 5.02106 14.5117C6.21453 15.7996 7.86057 16.5751 9.6136 16.6753C11.3666 16.7754 13.0903 16.1925 14.4227 15.0489L14.7043 15.3409V16.1648L19.9187 21.3688L21.4726 19.8149L16.2686 14.6005ZM10.0113 14.6005C9.0831 14.6005 8.17575 14.3252 7.40399 13.8096C6.63223 13.2939 6.03072 12.561 5.67552 11.7034C5.32031 10.8459 5.22738 9.90228 5.40846 8.99193C5.58954 8.08158 6.0365 7.24536 6.69283 6.58903C7.34916 5.93271 8.18537 5.48574 9.09573 5.30466C10.0061 5.12358 10.9497 5.21652 11.8072 5.57172C12.6648 5.92692 13.3977 6.52844 13.9134 7.3002C14.429 8.07196 14.7043 8.9793 14.7043 9.90749C14.7051 10.524 14.5843 11.1346 14.3487 11.7044C14.1132 12.2741 13.7675 12.7918 13.3316 13.2278C12.8956 13.6637 12.3779 14.0094 11.8082 14.2449C11.2384 14.4805 10.6278 14.6013 10.0113 14.6005Z" fill="#303841"/>
</g>
</svg>
