<svg width="24" height="24" viewBox="0 0 24 24" fill="none" xmlns="http://www.w3.org/2000/svg">
<path d="M2.78799 23.99H21.2C21.9395 23.9892 22.6486 23.6951 23.1716 23.1723C23.6946 22.6495 23.9889 21.9405 23.99 21.201V2.787C23.9884 2.04781 23.6939 1.33939 23.1709 0.816986C22.6479 0.29458 21.9392 0.000792271 21.2 0H2.787C2.04833 0.00158514 1.34037 0.295722 0.818047 0.818043C0.295726 1.34036 0.00158514 2.04833 0 2.787V21.2C0.00079359 21.9395 0.294857 22.6486 0.817696 23.1716C1.34053 23.6946 2.04946 23.9889 2.789 23.99H2.78799ZM0.598 2.79C0.598529 2.20934 0.829431 1.65261 1.24002 1.24202C1.65061 0.83143 2.20733 0.600528 2.78799 0.599998H21.2C21.7807 0.600528 22.3374 0.83143 22.748 1.24202C23.1586 1.65261 23.3895 2.20934 23.39 2.79V21.2C23.3895 21.7807 23.1586 22.3374 22.748 22.748C22.3374 23.1586 21.7807 23.3895 21.2 23.39H2.787C2.20634 23.3895 1.64961 23.1586 1.23902 22.748C0.828431 22.3374 0.59753 21.7807 0.597 21.2L0.598 2.79Z" fill="#303841"/>
<path d="M8.30432 8.91898C8.33215 8.95707 8.36857 8.98805 8.41062 9.00942C8.45266 9.0308 8.49916 9.04195 8.54633 9.04199H15.4783C15.5255 9.04195 15.572 9.0308 15.614 9.00942C15.6561 8.98805 15.6925 8.95707 15.7203 8.91898L18.1203 5.64799C18.1625 5.59022 18.1827 5.51928 18.1772 5.44795C18.1717 5.37662 18.1409 5.3096 18.0903 5.25899C16.0203 3.18899 12.1763 3.21099 12.0183 3.20999C11.8603 3.20899 8.00933 3.18899 5.93933 5.25899C5.88877 5.3096 5.85795 5.37662 5.85245 5.44795C5.84695 5.51928 5.86713 5.59022 5.90934 5.64799L8.30432 8.91898ZM-nan -nanL12.8483 8.44199H11.6667C11.3226 8.44199 11.0639 8.10497 11.326 7.88194C11.4944 7.73867 11.7082 7.65998 11.9293 7.65998C12.1504 7.65998 12.3643 7.73867 12.5327 7.88194C12.7011 8.02522 12.8129 8.22375 12.8483 8.44199L-nan -nanZM12.0153 3.80998C12.0426 3.80998 13.7543 3.80216 15.4438 4.38392C16.6964 4.81526 16.8772 6.32723 16.0939 7.39567L15.723 7.90158C15.473 8.24254 15.0755 8.44399 14.6528 8.44399H14.1356C13.7452 8.44399 13.4347 8.12995 13.232 7.79639C13.0299 7.46395 12.8976 7.04317 13.0812 6.7002L13.7643 5.42399C13.7836 5.38921 13.7957 5.35095 13.8 5.31143C13.8043 5.27192 13.8008 5.23194 13.7895 5.19382C13.7782 5.1557 13.7595 5.12019 13.7344 5.08937C13.7093 5.05855 13.6784 5.03302 13.6433 5.01427C13.6083 4.99552 13.5698 4.98392 13.5303 4.98015C13.4907 4.97638 13.4508 4.98051 13.4128 4.9923C13.3749 5.00409 13.3396 5.0233 13.3091 5.04883C13.2787 5.07435 13.2536 5.10568 13.2353 5.14099L12.4917 6.52972C12.3142 6.86118 11.932 7.01388 11.566 7.09969C11.3601 7.14796 11.1666 7.23908 10.9983 7.36712C10.83 7.49516 10.6905 7.65724 10.5891 7.84278C10.4177 8.15603 10.1343 8.44399 9.77721 8.44399H9.30435C8.92277 8.44399 8.56403 8.26217 8.33843 7.95444L7.92934 7.39643C7.14595 6.32788 7.32799 4.81613 8.58136 4.38652C10.2678 3.80849 11.9772 3.81483 12.014 3.81003C12.0147 3.80995 12.0147 3.80998 12.0153 3.80998Z" fill="#303841"/>
<path d="M4.15596 12.06H10.056C10.1355 12.06 10.2118 12.0284 10.2681 11.9721C10.3243 11.9159 10.356 11.8395 10.356 11.76C10.356 11.6804 10.3243 11.6041 10.2681 11.5479C10.2118 11.4916 10.1355 11.46 10.056 11.46H4.15596C4.0764 11.46 4.00008 11.4916 3.94382 11.5479C3.88756 11.6041 3.85596 11.6804 3.85596 11.76C3.85596 11.8395 3.88756 11.9159 3.94382 11.9721C4.00008 12.0284 4.0764 12.06 4.15596 12.06Z" fill="#303841"/>
<path d="M-nan -nanL13.6309 11.759C13.6309 11.7984 13.6386 11.8374 13.6537 11.8738C13.6688 11.9102 13.6909 11.9433 13.7187 11.9711C13.7466 11.999 13.7796 12.0211 13.816 12.0362C13.8524 12.0512 13.8915 12.059 13.9308 12.059H19.8308C19.9104 12.059 19.9867 12.0274 20.043 11.9711C20.0993 11.9149 20.1309 11.8386 20.1309 11.759C20.1309 11.6794 20.0993 11.6031 20.043 11.5469C19.9867 11.4906 19.9104 11.459 19.8308 11.459H13.9308C13.8915 11.459 13.8524 11.4668 13.816 11.4818C13.7796 11.4969 13.7466 11.519 13.7187 11.5469C13.6909 11.5747 13.6688 11.6078 13.6537 11.6442C13.6386 11.6806 13.6309 11.7196 13.6309 11.759L-nan -nanZ" fill="#303841"/>
<path d="M4.15596 14.768H10.056C10.1355 14.768 10.2118 14.7364 10.2681 14.6801C10.3243 14.6239 10.356 14.5476 10.356 14.468C10.356 14.3884 10.3243 14.3121 10.2681 14.2559C10.2118 14.1996 10.1355 14.168 10.056 14.168H4.15596C4.0764 14.168 4.00008 14.1996 3.94382 14.2559C3.88756 14.3121 3.85596 14.3884 3.85596 14.468C3.85596 14.5476 3.88756 14.6239 3.94382 14.6801C4.00008 14.7364 4.0764 14.768 4.15596 14.768Z" fill="#303841"/>
<path d="M-nan -nanL19.8309 14.168H13.9308C13.8513 14.168 13.775 14.1996 13.7187 14.2559C13.6625 14.3121 13.6309 14.3885 13.6309 14.468C13.6309 14.5476 13.6625 14.6239 13.7187 14.6801C13.775 14.7364 13.8513 14.768 13.9308 14.768H19.8309C19.9104 14.768 19.9867 14.7364 20.043 14.6801C20.0993 14.6239 20.1309 14.5476 20.1309 14.468C20.1309 14.3885 20.0993 14.3121 20.043 14.2559C19.9867 14.1996 19.9104 14.168 19.8309 14.168L-nan -nanZ" fill="#303841"/>
<path d="M4.15596 17.476H10.056C10.1355 17.476 10.2118 17.4444 10.2681 17.3881C10.3243 17.3319 10.356 17.2556 10.356 17.176C10.356 17.0964 10.3243 17.0201 10.2681 16.9639C10.2118 16.9076 10.1355 16.876 10.056 16.876H4.15596C4.0764 16.876 4.00008 16.9076 3.94382 16.9639C3.88756 17.0201 3.85596 17.0964 3.85596 17.176C3.85596 17.2556 3.88756 17.3319 3.94382 17.3881C4.00008 17.4444 4.0764 17.476 4.15596 17.476Z" fill="#303841"/>
<path d="M-nan -nanL19.8309 16.876H13.9308C13.8513 16.876 13.775 16.9076 13.7187 16.9638C13.6625 17.0201 13.6309 17.0964 13.6309 17.176C13.6309 17.2556 13.6625 17.3319 13.7187 17.3881C13.775 17.4444 13.8513 17.476 13.9308 17.476H19.8309C19.9104 17.476 19.9867 17.4444 20.043 17.3881C20.0993 17.3319 20.1309 17.2556 20.1309 17.176C20.1309 17.0964 20.0993 17.0201 20.043 16.9638C19.9867 16.9076 19.9104 16.876 19.8309 16.876L-nan -nanZ" fill="#303841"/>
<path d="M4.15596 20.183H10.056C10.1355 20.183 10.2118 20.1514 10.2681 20.0952C10.3243 20.0389 10.356 19.9626 10.356 19.883C10.356 19.8034 10.3243 19.7271 10.2681 19.6709C10.2118 19.6146 10.1355 19.583 10.056 19.583H4.15596C4.0764 19.583 4.00008 19.6146 3.94382 19.6709C3.88756 19.7271 3.85596 19.8034 3.85596 19.883C3.85596 19.9626 3.88756 20.0389 3.94382 20.0952C4.00008 20.1514 4.0764 20.183 4.15596 20.183Z" fill="#303841"/>
<path d="M-nan -nanL19.8309 19.583H13.9308C13.8513 19.583 13.775 19.6146 13.7187 19.6709C13.6625 19.7272 13.6309 19.8035 13.6309 19.883C13.6309 19.9626 13.6625 20.0389 13.7187 20.0952C13.775 20.1514 13.8513 20.183 13.9308 20.183H19.8309C19.9104 20.183 19.9867 20.1514 20.043 20.0952C20.0993 20.0389 20.1309 19.9626 20.1309 19.883C20.1309 19.8035 20.0993 19.7272 20.043 19.6709C19.9867 19.6146 19.9104 19.583 19.8309 19.583L-nan -nanZ" fill="#303841"/>
</svg>
